<?xml version="1.0" encoding="UTF-8"?>
<svg id="Layer_2" data-name="Layer 2" xmlns="http://www.w3.org/2000/svg" viewBox="0 0 144 144">
  <defs>
    <style>
      .cls-1 {
        fill: #20abd1;
      }

      .cls-1, .cls-2 {
        stroke-width: 0px;
      }

      .cls-2 {
        fill: #15a0cf;
      }
    </style>
  </defs>
  <rect class="cls-1" width="144" height="144"/>
  <path class="cls-1" d="M99.96,93.06v43.66c0,4.01-3.27,7.28-7.28,7.28H0v-74.7l36.59-36.6h0c2.83-2.83,7.45-2.83,10.28,0l47.93,47.93c.53.53,1.04,1.16,1.53,1.85.16.24.32.48.47.72.16.25.31.5.45.76.29.51.57,1.05.82,1.6,1.15,2.49,1.88,5.24,1.88,7.5Z"/>
  <path class="cls-2" d="M100.8,92.92v43.78c0,4.02-3.3,7.3-7.34,7.3h-46.96v-15.02l21.48-21.37c1.08.4,2.25.63,3.47.63,5.53,0,10.03-4.47,10.03-9.98s-4.51-9.97-10.03-9.97-10.03,4.47-10.03,9.97c0,1.05.17,2.07.47,3.02l-15.39,15.31v-39.55c3.33-1.62,5.63-5.01,5.63-8.94,0-5.5-4.51-9.97-10.03-9.97s-10.03,4.47-10.03,9.97c0,3.93,2.3,7.32,5.63,8.94v56.39l-15.47-15.39c.35-1.01.54-2.11.54-3.24,0-5.5-4.5-9.97-10.02-9.97s-10.03,4.47-10.03,9.97,4.51,9.98,10.03,9.98c1.13,0,2.23-.2,3.25-.55l19.87,19.77H0v-74.91l36.91-36.7c2.85-2.84,7.51-2.84,10.37,0h.01l48.32,48.06c.53.53,1.06,1.16,1.54,1.86.16.24.32.48.47.72.16.25.31.5.45.76.3.51.57,1.05.83,1.6,1.16,2.5,1.9,5.25,1.9,7.52Z"/>
</svg>