<?xml version="1.0" encoding="UTF-8"?>
<svg id="Layer_1" data-name="Layer 1" xmlns="http://www.w3.org/2000/svg" viewBox="0 0 72 72">
  <defs>
    <style>
      .cls-1 {
        fill: #2dbbed;
      }

      .cls-1, .cls-2 {
        stroke-width: 0px;
      }

      .cls-2 {
        fill: #fff;
      }
    </style>
  </defs>
  <rect class="cls-1" width="72" height="72"/>
  <path class="cls-2" d="M63.64,32.53L38.68,7.57c-1.47-1.47-3.89-1.47-5.36,0l-24.96,24.96c-1.47,1.47-2.68,4.39-2.68,6.47v22.74c0,2.08,1.71,3.79,3.79,3.79h23.32l-10.27-10.27c-.53.18-1.09.29-1.68.29-2.86,0-5.18-2.32-5.18-5.18s2.32-5.18,5.18-5.18,5.18,2.32,5.18,5.18c0,.59-.1,1.15-.29,1.68l7.99,7.99v-29.28c-1.72-.84-2.91-2.61-2.91-4.65,0-2.86,2.32-5.18,5.18-5.18s5.18,2.32,5.18,5.18c0,2.04-1.19,3.8-2.91,4.65v20.54l7.95-7.95c-.16-.5-.24-1.02-.24-1.57,0-2.86,2.32-5.18,5.18-5.18s5.18,2.32,5.18,5.18-2.32,5.18-5.18,5.18c-.63,0-1.23-.12-1.79-.33l-11.1,11.1v7.8h24.26c2.08,0,3.79-1.71,3.79-3.79v-22.74c0-2.08-1.21-5-2.68-6.47h0Z"/>
</svg>