<?xml version="1.0" encoding="UTF-8"?>
<svg id="Layer_1" data-name="Layer 1" xmlns="http://www.w3.org/2000/svg" viewBox="0 0 1091.2 1091.2">
  <defs>
    <style>
      .cls-1 {
        fill: #c8c8c8;
        stroke-width: 0px;
      }
    </style>
  </defs>
  <path class="cls-1" d="M964.55,493L586.24,114.68c-22.33-22.33-58.9-22.33-81.23,0L126.65,493c-22.33,22.33-40.64,66.48-40.64,98.08v344.69c0,31.6,25.85,57.45,57.45,57.45h353.38l-155.61-155.61c-8,2.76-16.55,4.33-25.43,4.33-43.28,0-78.51-35.24-78.51-78.51s35.24-78.51,78.51-78.51,78.51,35.24,78.51,78.51c0,8.92-1.57,17.46-4.33,25.47l121.14,121.14v-443.81c-26.04-12.79-44.04-39.52-44.04-70.43,0-43.28,35.24-78.51,78.51-78.51s78.51,35.24,78.51,78.51c0,30.91-18,57.64-44.04,70.43v311.26l120.49-120.49c-2.37-7.51-3.68-15.47-3.68-23.75,0-43.28,35.24-78.51,78.51-78.51s78.51,35.24,78.51,78.51-35.24,78.51-78.51,78.51c-9.57,0-18.69-1.8-27.15-4.94l-168.17,168.17v118.27h367.67c31.6,0,57.45-25.85,57.45-57.45v-344.69c0-31.6-18.27-75.72-40.64-98.08v-.03Z"/>
</svg>