<?xml version="1.0" encoding="UTF-8"?>
<svg id="Layer_1" data-name="Layer 1" xmlns="http://www.w3.org/2000/svg" viewBox="0 0 28.06 28.06">
  <defs>
    <style>
      .cls-1 {
        fill: #c8c8c8;
      }

      .cls-1, .cls-2 {
        stroke-width: 0px;
      }

      .cls-2 {
        fill: #fff;
      }

      .cls-3 {
        fill: #231f20;
        font-family: MyriadPro-Regular, 'Myriad Pro';
        font-size: 8px;
      }
    </style>
  </defs>
  <rect class="cls-2" x="0" y="0" width="28.06" height="28.06"/>
  <path class="cls-1" d="M24.81,12.68L15.08,2.95c-.57-.57-1.51-.57-2.09,0L3.26,12.68c-.57.57-1.05,1.71-1.05,2.52v8.86c0,.81.66,1.48,1.48,1.48h9.09l-4-4c-.21.07-.43.11-.65.11-1.11,0-2.02-.91-2.02-2.02s.91-2.02,2.02-2.02,2.02.91,2.02,2.02c0,.23-.04.45-.11.65l3.12,3.12v-11.41c-.67-.33-1.13-1.02-1.13-1.81,0-1.11.91-2.02,2.02-2.02s2.02.91,2.02,2.02c0,.79-.46,1.48-1.13,1.81v8l3.1-3.1c-.06-.19-.09-.4-.09-.61,0-1.11.91-2.02,2.02-2.02s2.02.91,2.02,2.02-.91,2.02-2.02,2.02c-.25,0-.48-.05-.7-.13l-4.32,4.32v3.04h9.46c.81,0,1.48-.66,1.48-1.48v-8.86c0-.81-.47-1.95-1.05-2.52h0Z"/>
  <text class="cls-3" transform="translate(8.64 26.89)"><tspan x="0" y="0">ON</tspan></text>
</svg>