<svg xmlns="http://www.w3.org/2000/svg" width="16" height="16" viewBox="0 0 16 16">
  <g fill="#9C9C9C">
    <path d="M15,15 L1.77635684e-15,15 L1.77635684e-15,1 L15,1 L15,15 Z M5,7 L5,8 L6,8 L6,7 L5,7 Z M3,7 L3,8 L4,8 L4,7 L3,7 Z M7,7 L7,8 L8,8 L8,7 L7,7 Z M9,7 L9,8 L10,8 L10,7 L9,7 Z M11,7 L11,8 L12,8 L12,7 L11,7 Z M3,9 L3,10 L4,10 L4,9 L3,9 Z M5,9 L5,10 L6,10 L6,9 L5,9 Z M7,9 L7,10 L8,10 L8,9 L7,9 Z M9,9 L9,10 L10,10 L10,9 L9,9 Z M11,9 L11,10 L12,10 L12,9 L11,9 Z M3,11 L3,12 L4,12 L4,11 L3,11 Z M5,11 L5,12 L6,12 L6,11 L5,11 Z M7,11 L7,12 L8,12 L8,11 L7,11 Z M9,11 L9,12 L10,12 L10,11 L9,11 Z M11,11 L11,12 L12,12 L12,11 L11,11 Z M14,4 L14,2 L1,2 L1,4 L14,4 Z"/>
    <rect width="1" height="1" x="2"/>
    <rect width="1" height="1" x="12"/>
  </g>
</svg>
