<svg xmlns="http://www.w3.org/2000/svg" width="16" height="16" viewBox="0 0 16 16">
  <g fill="none" fill-rule="evenodd">
    <path fill="#9C9C9C" fill-rule="nonzero" d="M1,5 L1,14 L14,14 L14,5 L1,5 Z M0,1 L15,1 L15,15 L0,15 L0,1 Z M14,4 L14,2 L1,2 L1,4 L14,4 Z"/>
    <rect width="1" height="1" x="2" fill="#9C9C9C" fill-rule="nonzero"/>
    <rect width="1" height="1" x="12" fill="#9C9C9C" fill-rule="nonzero"/>
    <g transform="translate(3 7)">
      <rect width="1" height="1" x="2" fill="#9C9C9C"/>
      <rect width="1" height="1" fill="#666"/>
      <rect width="1" height="1" x="4" fill="#9C9C9C"/>
      <rect width="1" height="1" x="6" fill="#9C9C9C"/>
      <rect width="1" height="1" x="8" fill="#9C9C9C"/>
      <rect width="1" height="1" y="2" fill="#9C9C9C"/>
      <rect width="1" height="1" x="2" y="2" fill="#9C9C9C"/>
      <rect width="1" height="1" x="4" y="2" fill="#9C9C9C"/>
      <rect width="1" height="1" x="6" y="2" fill="#9C9C9C"/>
      <rect width="1" height="1" x="8" y="2" fill="#9C9C9C"/>
      <rect width="1" height="1" y="4" fill="#9C9C9C"/>
      <rect width="1" height="1" x="2" y="4" fill="#9C9C9C"/>
      <rect width="1" height="1" x="4" y="4" fill="#9C9C9C"/>
      <rect width="1" height="1" x="6" y="4" fill="#9C9C9C"/>
      <rect width="1" height="1" x="8" y="4" fill="#666"/>
    </g>
  </g>
</svg>
