<?xml version="1.0" encoding="UTF-8" standalone="no"?>
<!-- Created with Keyshape -->
<svg xmlns="http://www.w3.org/2000/svg" xmlns:xlink="http://www.w3.org/1999/xlink" width="46" height="46" viewBox="0 0 46 46">
    <style>
@keyframes a0_t { 0% { transform: translate(0px,0px) scale(1,1); } 50% { transform: translate(23px,0px) scale(0,1); } 100% { transform: translate(0px,0px) scale(1,1); } }
@keyframes a0_f { 0% { fill: #d8d8d8; } 100% { fill: #d8d8d8; } }
@keyframes a0_d { 0% { d: path('M26.7002,16.1301L26.6501,16.0924L18.4447,11.4398L14.3373,13.7874L14.3373,31.9187L18.4511,34.2437L30.0827,27.5941L26.0878,25.3292L18.3286,29.7648L18.3286,15.9149L40.8363,28.6881L40.8228,28.7688C39.6065,32.4179,37.3047,35.5576,34.1665,37.8484C30.9632,40.1865,27.1667,41.4225,23.1877,41.4225C12.9466,41.4225,4.6147,33.1581,4.6147,22.9999C4.6147,12.8415,12.9466,4.57726,23.1877,4.57726C31.0308,4.57726,38.0657,9.51032,40.6929,16.8527C40.888,17.3976,41.0585,17.9576,41.201,18.5197L45.3224,16.1504C45.1466,15.5908,44.9476,15.0335,44.7302,14.4923C43.0331,10.2647,40.1339,6.65801,36.3464,4.0619C32.4692,1.40466,27.9189,0,23.1877,0C16.994,0,11.1711,2.39237,6.7916,6.73651C2.4119,11.0806,0,16.8563,0,22.9999C0,29.1433,2.4119,34.9192,6.7916,39.2635C11.1711,43.6076,16.994,46,23.1877,46C28.6714,46,33.9912,44.0654,38.1673,40.553C42.2755,37.0973,45.0531,32.3177,46,27.0878L26.7002,16.1301L26.7002,16.1301Z'); } 100% { d: path('M26.7002,16.1301L26.6501,16.0924L18.4447,11.4398L14.3373,13.7874L14.3373,31.9187L18.4511,34.2437L30.0827,27.5941L26.0878,25.3292L18.3286,29.7648L18.3286,15.9149L40.8363,28.6881L40.8228,28.7688C39.6065,32.4179,37.3047,35.5576,34.1665,37.8484C30.9632,40.1865,27.1667,41.4225,23.1877,41.4225C12.9466,41.4225,4.6147,33.1581,4.6147,22.9999C4.6147,12.8415,12.9466,4.57726,23.1877,4.57726C31.0308,4.57726,38.0657,9.51032,40.6929,16.8527C40.888,17.3976,41.0585,17.9576,41.201,18.5197L45.3224,16.1504C45.1466,15.5908,44.9476,15.0335,44.7302,14.4923C43.0331,10.2647,40.1339,6.65801,36.3464,4.0619C32.4692,1.40466,27.9189,0,23.1877,0C16.994,0,11.1711,2.39237,6.7916,6.73651C2.4119,11.0806,0,16.8563,0,22.9999C0,29.1433,2.4119,34.9192,6.7916,39.2635C11.1711,43.6076,16.994,46,23.1877,46C28.6714,46,33.9912,44.0654,38.1673,40.553C42.2755,37.0973,45.0531,32.3177,46,27.0878L26.7002,16.1301L26.7002,16.1301Z'); } }
    </style>
    <path fill="#d8d8d8" fill-rule="evenodd" d="M26.7002,16.1301L26.6501,16.0924L18.4447,11.4398L14.3373,13.7874L14.3373,31.9187L18.4511,34.2437L30.0827,27.5941L26.0878,25.3292L18.3286,29.7648L18.3286,15.9149L40.8363,28.6881L40.8228,28.7688C39.6065,32.4179,37.3047,35.5576,34.1665,37.8484C30.9632,40.1865,27.1667,41.4225,23.1877,41.4225C12.9466,41.4225,4.6147,33.1581,4.6147,22.9999C4.6147,12.8415,12.9466,4.57726,23.1877,4.57726C31.0308,4.57726,38.0657,9.51032,40.6929,16.8527C40.888,17.3976,41.0585,17.9576,41.201,18.5197L45.3224,16.1504C45.1466,15.5908,44.9476,15.0335,44.7302,14.4923C43.0331,10.2647,40.1339,6.65801,36.3464,4.0619C32.4692,1.40466,27.9189,0,23.1877,0C16.994,0,11.1711,2.39237,6.7916,6.73651C2.4119,11.0806,0,16.8563,0,22.9999C0,29.1433,2.4119,34.9192,6.7916,39.2635C11.1711,43.6076,16.994,46,23.1877,46C28.6714,46,33.9912,44.0654,38.1673,40.553C42.2755,37.0973,45.0531,32.3177,46,27.0878L26.7002,16.1301L26.7002,16.1301Z" style="animation: 6s linear infinite both a0_t, 6s linear infinite both a0_f, 6s linear infinite both a0_d;"/>
</svg>
